<svg width="375" height="812" viewBox="0 0 375 812" fill="none" xmlns="http://www.w3.org/2000/svg">
    <g clip-path="url(#clip0_734_1079)">
        <rect width="375" height="812" rx="20" fill="#E4F6EB"/>
        <path d="M214.893 925.99L235.916 973.585L253.332 955.649L239.685 908.248C239.685 908.248 346.818 823.315 326.87 758.735C316.487 725.124 269.332 689.426 269.332 689.426L211.393 874.205L205.616 866.865L265.381 686.527C261.384 682.103 236.521 658.845 232.393 654.573L154.429 792.097L151.237 780.389L227.555 651.023C224.885 648.38 201.839 622.17 199.125 619.62L90.6026 723.181L90.6026 716.181L192.271 614.591C186.956 609.828 155.644 558.165 150.197 553.866L52.6907 683.958L47.8283 673.568L141.946 547.587C136.918 542.967 136.571 543.49 131.084 539.931L35.1681 656.993L32.6894 641.849L116.473 531.301C106.223 525.737 95.8769 521.362 85.5228 518.479L84.7202 519.351L11.7565 626.49L2.8994 610.834L66.9295 515.799L68.6773 513.417C55.4405 509.022 42.3665 506.01 29.1026 504.808L28.5206 505.601L-20.6123 588.621L-34.7215 578.268L16.9086 504.523L16.931 504.226C3.20179 504.164 -10.8388 506.135 -25.5691 510.599C-84.6187 528.494 -107.943 574.835 -114.678 633.154L-35.645 586.585L-28.7346 596.779L-116.809 645.069C-117.29 654.686 -117.018 673.996 -116.861 684.047L-7.82356 625.447L2.12626 635.109L-116.276 702.689C-115.781 713.426 -113.831 724.488 -110.699 735.722L17.4866 662.569L26.3184 669.054L-106.118 750.047C-104.428 754.747 -102.557 759.466 -100.522 764.192L36.9313 688.419L42.3023 691.543L-96.2472 773.639C-93.2745 779.91 -73.211 807.402 -69.757 813.648L71.088 740.868L75.7894 750.519C75.7894 750.519 -60.9242 818.291 -59.0451 821.508C-57.1659 824.724 -25.4974 857.286 -25.4974 857.286L116.929 801.791L127.839 812.277C127.839 812.277 -17.076 867.686 -13.8356 872.665C-10.5951 877.644 12.4648 907.571 15.883 912.456L173.034 878.307L180.934 887.825L22.4665 920.387C22.4665 920.387 41.5219 957.22 62.6037 971.166C114.342 1005.39 214.893 925.99 214.893 925.99Z" fill="#8EDAAC"/>
        <path d="M97.0775 -206.711L92.0574 -258.5L69.8916 -246.938L67.9687 -197.649C67.9687 -197.649 -60.4112 -150.64 -61.7436 -83.0633C-62.4372 -47.8916 -28.872 0.805019 -28.872 0.805019L84.144 -156.446L87.3251 -147.663L-26.0309 4.79767C-23.625 10.2526 -7.32002 40.1399 -4.74106 45.4919L112.453 -60.6064L111.808 -48.488L-1.26241 50.3805C0.443371 53.7282 14.0958 85.8477 15.8727 89.1218L151.419 24.8624L149.222 31.5085L20.8008 96.0474C24.3525 102.239 37.8634 161.119 41.6854 166.911L175.101 74.0046L176.456 85.3955L47.5488 175.463C50.872 181.427 51.3653 181.04 55.4585 186.141L183.273 105.107L180.873 120.263L66.6217 198.922C74.6066 207.422 83.0562 214.824 91.9818 220.811L93.0175 220.236L195.926 141.417L199.42 159.063L108.794 229.193L106.387 230.906C117.575 239.234 129.042 246.198 141.258 251.503L142.06 250.933L214.771 187.534L224.917 201.792L152.746 255.602L152.632 255.877C165.648 260.246 179.597 262.781 194.984 263.167C256.666 264.714 293.36 228.037 318.061 174.781L228.404 194.186L225.043 182.337L323.825 164.136C327.3 155.157 333.104 136.737 336.11 127.146L214.189 148.554L207.775 136.257L341.406 109.262C344.307 98.9128 345.928 87.7975 346.482 76.1481L201.811 105.364L195.462 96.4341L346.628 61.1097C346.5 56.1166 346.204 51.0488 345.756 45.9227L191.465 74.716L187.346 70.0634L344.663 35.6115C343.809 28.7246 333.39 -3.67609 332.072 -10.6908L175.499 14.1959L174.065 3.55667C174.065 3.55667 325.143 -17.8722 324.368 -21.5161C323.594 -25.1599 303.748 -66.0174 303.748 -66.0174L151.101 -58.0377L144.033 -71.4189C144.033 -71.4189 299.017 -78.5346 297.504 -84.2795C295.99 -90.0244 283.49 -125.677 281.778 -131.388L121.852 -148.299L117.339 -159.815L278.018 -140.985C278.018 -140.985 271.488 -181.938 255.85 -201.797C217.471 -250.534 97.0775 -206.711 97.0775 -206.711Z" fill="#8EDAAC"/>
        <path d="M378.415 427.668C411.612 445.987 387.443 496.078 360.915 523.168C334.387 550.259 254.164 577.958 238.915 532.668C230.362 507.265 259.243 500.765 255.915 466.168C252.587 431.571 184.196 496.325 166.915 466.168C157.013 448.888 158.404 433.175 166.915 415.168C175.206 397.628 187.136 390.935 204.915 383.168C229.966 372.226 249.637 393.577 274.915 383.168C318.518 365.214 283.658 261.926 328.915 275.168C366.665 286.215 366.43 331.724 360.915 370.668C355.584 408.31 274.746 431.409 306.915 451.668C331.838 467.365 352.627 413.438 378.415 427.668Z" fill="#BBE9CD"/>
        <path d="M318.938 619.177C320.387 632.085 296.064 629.852 296.064 629.852H294.668C286.561 629.852 281.544 629.195 275.661 624.079C269.168 618.433 258.694 605.453 267.177 603.601C275.661 601.749 277.228 596.799 284.574 594.995C292.624 593.02 304.387 591.728 305.783 594.995C307.179 598.263 317.488 606.269 318.938 619.177Z" fill="#1DB558"/>
        <path d="M17.3294 386.977C7.57032 378.405 27.0639 363.688 27.0639 363.688L28.0964 362.748C34.0934 357.292 38.2469 354.402 46.0407 354.227C54.6427 354.033 71.126 356.586 66.0972 363.665C61.0685 370.744 63.2413 375.459 59.0209 381.737C54.3962 388.616 46.5654 397.488 43.3336 396.01C40.1018 394.533 27.0885 395.549 17.3294 386.977Z" fill="#1DB558"/>
        <path d="M307.448 156.44C308.415 150.906 318.326 154.824 318.326 154.824L318.91 154.996C322.305 155.993 324.325 156.883 326.165 159.729C328.195 162.87 330.998 169.544 327.22 169.269C323.443 168.994 322.184 170.855 318.888 170.7C315.277 170.53 310.195 169.619 310.009 168.091C309.822 166.564 306.482 161.974 307.448 156.44Z" fill="#1DB558"/>
    </g>
    <defs>
        <clipPath id="clip0_734_1079">
            <rect width="375" height="812" rx="20" fill="white"/>
        </clipPath>
    </defs>
</svg>
